PathFileType	4	(X/Y/Z)	 Jog05.trc
DataRate	CameraRate	NumFrames	NumMarkers	Units	OrigDataRate	OrigDataStartFrame	OrigNumFrames
250	250	14	31	m	250	489	651
Frame#	Time	RASI			LASI			RAIC			LAIC			RTH2			RTB3			RMT1			RMT5			LTH1			LTH2			LTH3			LCAL			LMT1			LMT5			CLAV			STRN			RACR			LACR			RTH1			RTH3			LTB1			LTB2			C7			LPSI			T10			RPSI			LTB3			RTB1			RCAL			RTB2			C_30			
		X1	Y1	Z1	X2	Y2	Z2	X3	Y3	Z3	X4	Y4	Z4	X5	Y5	Z5	X6	Y6	Z6	X7	Y7	Z7	X8	Y8	Z8	X9	Y9	Z9	X10	Y10	Z10	X11	Y11	Z11	X12	Y12	Z12	X13	Y13	Z13	X14	Y14	Z14	X15	Y15	Z15	X16	Y16	Z16	X17	Y17	Z17	X18	Y18	Z18	X19	Y19	Z19	X20	Y20	Z20	X21	Y21	Z21	X22	Y22	Z22	X23	Y23	Z23	X24	Y24	Z24	X25	Y25	Z25	X26	Y26	Z26	X27	Y27	Z27	X28	Y28	Z28	X29	Y29	Z29	X30	Y30	Z30	X31	Y31	Z31	
489	1.9560	3.385990	0.963741	0.412340	3.380031	0.952772	0.183546	3.315484	1.055813	0.461075	3.333488	1.055649	0.158558	3.419383	0.773070	0.453934	3.517545	0.242334	0.307051	3.647335	0.090027	0.283061	3.641692	0.075965	0.376130	3.305444	0.827818	0.132152	3.324253	0.729863	0.157475	3.250859	0.657825	0.137709	2.754338	0.613528	0.227163	2.694941	0.404249	0.243814	2.674531	0.424799	0.157447	3.399480	1.417978	0.338131	3.436281	1.199638	0.345726	3.293442	1.456109	0.483934	3.411348	1.459719	0.164277	3.337607	0.830456	0.482050	3.409259	0.672424	0.445882	3.049532	0.452764	0.225459	2.983398	0.465362	0.171462	3.295792	1.497666	0.303684	3.211904	1.033636	0.282221	3.218840	1.217397	0.282931	3.210440	1.025861	0.353883	2.916629	0.480008	0.223938	3.513790	0.378724	0.308122	3.445556	0.030066	0.299044	3.533329	0.313209	0.358167	3.475909	0.515576	0.281610	
490	1.9600	3.401315	0.960793	0.412967	3.395314	0.948763	0.183822	3.329778	1.052236	0.461059	3.348450	1.051212	0.158166	3.434655	0.770526	0.451904	3.526846	0.237987	0.306041	3.652647	0.079504	0.281881	3.646058	0.065703	0.374827	3.321558	0.823818	0.131808	3.341990	0.725975	0.156021	3.269369	0.652972	0.136122	2.779148	0.617587	0.226721	2.716249	0.409444	0.241203	2.697209	0.430722	0.154920	3.415669	1.413746	0.338167	3.451859	1.195279	0.344893	3.310524	1.451689	0.485011	3.426387	1.455735	0.163944	3.353185	0.827564	0.482399	3.424767	0.669754	0.444676	3.071548	0.450466	0.223326	3.005565	0.464880	0.169591	3.311748	1.493860	0.304437	3.226601	1.029339	0.280947	3.233531	1.213750	0.283500	3.224868	1.021966	0.352843	2.939228	0.480635	0.222203	3.526346	0.374357	0.306901	3.447501	0.031457	0.298720	3.544346	0.308576	0.357174	3.491319	0.511522	0.280495	
491	1.9640	3.416145	0.957423	0.413602	3.410535	0.944577	0.184129	3.343913	1.048358	0.460984	3.363389	1.046637	0.157844	3.449448	0.767369	0.450221	3.536426	0.233711	0.305113	3.657603	0.069647	0.280704	3.650314	0.055734	0.373430	3.337569	0.819740	0.131428	3.359671	0.722033	0.154563	3.288017	0.648100	0.134536	2.803763	0.621468	0.226217	2.738859	0.413694	0.238761	2.720250	0.435949	0.152430	3.431906	1.409485	0.338170	3.467381	1.190796	0.344071	3.327602	1.447219	0.486143	3.441451	1.451820	0.163643	3.368456	0.824192	0.482819	3.439784	0.666593	0.443806	3.095153	0.447018	0.220601	3.028255	0.464201	0.167303	3.327694	1.489906	0.305012	3.241180	1.024919	0.279589	3.249197	1.209920	0.284500	3.239067	1.018197	0.351671	2.962405	0.480633	0.220214	3.539765	0.370156	0.305717	3.449198	0.033373	0.298629	3.555472	0.303895	0.356382	3.506270	0.507118	0.278780	
492	1.9680	3.430734	0.953784	0.414260	3.425647	0.940232	0.184482	3.358175	1.044362	0.460924	3.378413	1.042075	0.157461	3.463898	0.763547	0.449502	3.546346	0.230104	0.304056	3.661550	0.061483	0.279177	3.654578	0.048766	0.372221	3.353454	0.815626	0.131120	3.377371	0.718104	0.153096	3.306771	0.643245	0.132948	2.829447	0.624639	0.225820	2.761474	0.417539	0.236501	2.743965	0.440541	0.150003	3.448190	1.405186	0.338177	3.482852	1.186148	0.343238	3.344667	1.442747	0.487293	3.456348	1.447827	0.163125	3.383368	0.820435	0.483298	3.454039	0.662769	0.443271	3.116714	0.445149	0.218558	3.051085	0.463168	0.165719	3.343656	1.486056	0.305709	3.255537	1.020589	0.278475	3.265724	1.206336	0.285402	3.253044	1.014338	0.350839	2.984274	0.481660	0.220309	3.554096	0.366354	0.304461	3.450357	0.034864	0.298598	3.566767	0.299631	0.355676	3.520395	0.502471	0.276904	
493	1.9720	3.444963	0.949934	0.414785	3.440711	0.935738	0.184826	3.373098	1.040416	0.460736	3.393543	1.037282	0.156875	3.478077	0.759331	0.450199	3.555971	0.227776	0.302598	3.663728	0.055771	0.276916	3.657271	0.048506	0.371095	3.369310	0.811554	0.130860	3.395073	0.714280	0.151687	3.325679	0.638323	0.131540	2.854960	0.627224	0.225313	2.784536	0.420915	0.234357	2.768058	0.444588	0.147794	3.464573	1.400868	0.338154	3.498252	1.181416	0.342348	3.361668	1.438290	0.488686	3.471286	1.443916	0.162482	3.397557	0.816334	0.483752	3.467865	0.658619	0.443063	3.139691	0.442601	0.216413	3.074281	0.461881	0.163795	3.359719	1.482258	0.306393	3.269745	1.016207	0.277386	3.280717	1.202591	0.286138	3.266951	1.010607	0.349578	3.009233	0.480665	0.217504	3.568905	0.363625	0.303167	3.451246	0.036207	0.298083	3.577963	0.296445	0.354778	3.534224	0.497900	0.275021	
494	1.9760	3.458721	0.946022	0.415154	3.455936	0.930989	0.185084	3.387773	1.036260	0.460380	3.408531	1.032702	0.156650	3.491667	0.754998	0.452200	3.563956	0.227670	0.300608	3.664218	0.053616	0.274979	3.657916	0.048535	0.369110	3.385158	0.807537	0.130594	3.412840	0.710599	0.150397	3.344629	0.633495	0.129946	2.880541	0.629304	0.224789	2.807579	0.423754	0.232281	2.792557	0.447903	0.145669	3.481065	1.396630	0.338126	3.513718	1.176667	0.341331	3.378770	1.433997	0.490183	3.486210	1.440095	0.161687	3.410847	0.812073	0.484125	3.481171	0.654538	0.442533	3.163099	0.439796	0.214383	3.097869	0.460404	0.162035	3.375717	1.478487	0.307231	3.283771	1.011966	0.276198	3.296078	1.198890	0.286758	3.280524	1.007015	0.348807	3.033713	0.479737	0.215839	3.582646	0.362799	0.301748	3.451713	0.037226	0.297709	3.589422	0.295286	0.352887	3.547821	0.494017	0.273381	
495	1.9800	3.472069	0.942219	0.415363	3.470461	0.926461	0.185711	3.402706	1.032176	0.460055	3.423490	1.027887	0.156247	3.504384	0.750720	0.454788	3.570397	0.228351	0.298503	3.664840	0.051187	0.273847	3.658729	0.047997	0.367913	3.400950	0.803673	0.130365	3.430733	0.707267	0.149275	3.363868	0.628882	0.128512	2.906223	0.630971	0.224121	2.831735	0.425475	0.229679	2.817488	0.450525	0.143589	3.497688	1.392440	0.338099	3.529117	1.171980	0.340270	3.395798	1.429823	0.491698	3.501079	1.436398	0.160687	3.423112	0.807967	0.484596	3.493323	0.651001	0.440807	3.186699	0.437182	0.212355	3.121704	0.458898	0.160038	3.391825	1.474963	0.307843	3.297628	1.007570	0.275073	3.310547	1.195441	0.287955	3.294011	1.003408	0.347935	3.058606	0.478725	0.213727	3.594515	0.362750	0.299933	3.452207	0.038372	0.297278	3.600436	0.294739	0.350166	3.562349	0.492156	0.272020	
496	1.9840	3.485479	0.938475	0.415638	3.484888	0.922002	0.186315	3.417527	1.028082	0.459839	3.438467	1.023111	0.155978	3.516920	0.746877	0.456820	3.576476	0.229313	0.296310	3.666353	0.047963	0.273481	3.660515	0.046439	0.367883	3.416831	0.800325	0.130081	3.448807	0.704505	0.148332	3.383633	0.624830	0.127226	2.931090	0.631875	0.223867	2.856745	0.426850	0.228536	2.843024	0.452495	0.141657	3.514283	1.388366	0.338006	3.544484	1.167440	0.339108	3.413007	1.425835	0.493471	3.515957	1.432805	0.159551	3.434862	0.804025	0.484852	3.506753	0.648166	0.439451	3.212062	0.433645	0.209914	3.145911	0.457265	0.158257	3.407937	1.471796	0.308609	3.311271	1.003310	0.274188	3.325462	1.191924	0.288502	3.307354	0.999698	0.347136	3.083601	0.477554	0.211785	3.605263	0.362959	0.297814	3.452919	0.039753	0.297132	3.611009	0.294351	0.346989	3.578179	0.493296	0.270750	
497	1.9880	3.498712	0.934627	0.416287	3.499356	0.917538	0.186788	3.432929	1.024124	0.459558	3.452896	1.018554	0.155906	3.529707	0.743846	0.457426	3.583030	0.230394	0.294427	3.668005	0.046858	0.274170	3.661560	0.045463	0.368594	3.432959	0.797452	0.129814	3.467094	0.702388	0.147470	3.403627	0.621407	0.125881	2.957005	0.632585	0.223003	2.881670	0.427614	0.226633	2.868897	0.453591	0.139863	3.532620	1.384729	0.337857	3.559780	1.163033	0.337893	3.430165	1.421957	0.495322	3.530581	1.429261	0.158275	3.446810	0.800475	0.484711	3.519890	0.645708	0.438679	3.236427	0.431177	0.207963	3.170522	0.455664	0.156767	3.424109	1.468934	0.309305	3.324905	0.999046	0.273118	3.341105	1.189530	0.288798	3.320887	0.996298	0.346633	3.108664	0.476240	0.210275	3.615177	0.363279	0.295665	3.453757	0.040991	0.296564	3.621425	0.294057	0.343776	3.594456	0.496087	0.269375	
498	1.9920	3.513096	0.931057	0.417314	3.513812	0.913249	0.187162	3.447957	1.020290	0.459355	3.467708	1.013818	0.155724	3.542624	0.741405	0.457506	3.589650	0.230909	0.293403	3.668667	0.046047	0.274051	3.662050	0.044884	0.368567	3.449400	0.795056	0.129596	3.485619	0.700723	0.146580	3.423966	0.618515	0.124770	2.985110	0.632958	0.221442	2.910438	0.427916	0.220230	2.894885	0.453884	0.138237	3.548853	1.380909	0.337580	3.574978	1.158758	0.336681	3.447395	1.418220	0.497222	3.545220	1.425867	0.156890	3.459032	0.797606	0.484498	3.534251	0.643436	0.438934	3.260302	0.429663	0.206636	3.195332	0.453875	0.154986	3.440339	1.466614	0.310032	3.338539	0.994810	0.272139	3.356026	1.187105	0.289573	3.334481	0.992673	0.345748	3.133616	0.475197	0.208791	3.624433	0.363255	0.293592	3.454279	0.041857	0.295944	3.631537	0.293670	0.340835	3.610675	0.499084	0.268341	
499	1.9960	3.527035	0.927392	0.418403	3.528087	0.909120	0.187440	3.462671	1.016545	0.459198	3.482456	1.009181	0.155173	3.555630	0.739397	0.457656	3.596294	0.230200	0.293055	3.669085	0.044977	0.273309	3.662322	0.044800	0.367691	3.465846	0.792893	0.129587	3.504254	0.699318	0.145608	3.444271	0.615869	0.123555	3.010345	0.632665	0.220484	2.929723	0.428754	0.223814	2.922577	0.453483	0.136906	3.564987	1.377309	0.337242	3.590216	1.154626	0.335433	3.464553	1.414600	0.499129	3.559812	1.422487	0.155400	3.471404	0.795100	0.484202	3.547270	0.641405	0.438761	3.285358	0.427544	0.205218	3.220565	0.452208	0.153937	3.456718	1.465016	0.310658	3.352160	0.990641	0.271299	3.370737	1.185040	0.290235	3.348011	0.989219	0.345177	3.158907	0.473996	0.207328	3.632926	0.362040	0.291871	3.454639	0.042547	0.295564	3.639988	0.292379	0.339350	3.626686	0.501686	0.267766	
500	2.0000	3.541021	0.923878	0.419419	3.542402	0.905306	0.187620	3.477521	1.013021	0.458989	3.497010	1.004784	0.154087	3.568495	0.737670	0.457693	3.601870	0.228544	0.292686	3.669485	0.044368	0.273313	3.662565	0.044483	0.367629	3.482430	0.790946	0.129669	3.522996	0.698164	0.144544	3.464534	0.613484	0.122400	3.035587	0.632225	0.219356	2.962123	0.425987	0.217358	2.949213	0.452218	0.135535	3.580984	1.373921	0.336834	3.605465	1.150638	0.334218	3.481819	1.411159	0.500885	3.574433	1.419233	0.153904	3.483843	0.792906	0.483842	3.560758	0.639533	0.438677	3.310667	0.425506	0.203921	3.245924	0.450504	0.152583	3.473140	1.463709	0.311173	3.365827	0.986687	0.270420	3.383883	1.183278	0.291168	3.361827	0.986245	0.344439	3.184261	0.472628	0.206150	3.641375	0.359606	0.291039	3.454981	0.043462	0.295363	3.646213	0.290169	0.339179	3.642286	0.503642	0.267718	
501	2.0040	3.555022	0.920632	0.420370	3.556699	0.901820	0.187704	3.491777	1.009720	0.458892	3.511387	1.000289	0.153215	3.581372	0.736037	0.457582	3.606597	0.226380	0.292198	3.669928	0.044008	0.273475	3.662780	0.044170	0.367829	3.498972	0.789191	0.129800	3.541780	0.697228	0.143423	3.485188	0.611391	0.121379	3.060305	0.631000	0.218342	2.988398	0.424202	0.216105	2.976016	0.450245	0.134160	3.596844	1.370724	0.336363	3.620788	1.146859	0.333042	3.499144	1.407936	0.502409	3.589091	1.416114	0.152611	3.496640	0.790885	0.483643	3.574110	0.637738	0.438656	3.336275	0.423604	0.202753	3.271440	0.448760	0.151323	3.489637	1.462675	0.311645	3.379511	0.983029	0.269374	3.400108	1.181644	0.291992	3.375676	0.983222	0.343412	3.209096	0.471819	0.206279	3.649843	0.356570	0.290382	3.455365	0.044172	0.295024	3.652050	0.287056	0.339126	3.657115	0.504182	0.268094	
502	2.0080	3.569137	0.917808	0.421292	3.571064	0.898665	0.187516	3.505815	1.006773	0.458777	3.526059	0.996332	0.153689	3.594213	0.734478	0.457518	3.610877	0.224039	0.291750	3.670104	0.043633	0.273434	3.662873	0.043999	0.367711	3.515473	0.787696	0.130136	3.560490	0.696551	0.142294	3.505562	0.609539	0.120157	3.084819	0.629405	0.217269	3.014873	0.421937	0.215120	3.003161	0.447585	0.132904	3.612675	1.367732	0.335893	3.636237	1.143386	0.331761	3.516514	1.404851	0.503611	3.603654	1.413203	0.151461	3.509391	0.789144	0.483480	3.587162	0.636127	0.438707	3.362064	0.421728	0.201661	3.297202	0.446981	0.150462	3.505911	1.461887	0.312109	3.393158	0.979793	0.268603	3.414837	1.180390	0.292826	3.389505	0.980760	0.342750	3.234922	0.470087	0.205511	3.658076	0.352658	0.290035	3.455527	0.044692	0.294891	3.657130	0.283523	0.339280	3.669592	0.499783	0.268294	
